# xmcd
#
# Track frame offsets:
#  183
#  21835
#  39430
#  59430
#  76788
#  104165
#  121248
#  138013
#  155828
#  172825
#  186725
#
# Disc length: 2790 seconds
#
# Revision: 5
# Processed by: cddbd v1.5.2PL0 Copyright (c) Steve Scherf et al.
# Submitted via: AltoMP3_Maker 3.0
#
DISCID=910ae40b
DTITLE=Shadows - XXV
DYEAR=1900
DGENRE=
TTITLE0=Africa
TTITLE1=Going Home (Theme From "Local Hero")
TTITLE2=Up Where We Belong
TTITLE3=You Don't Have To Say You Love Me
TTITLE4=The Modern Way
TTITLE5=Diamonds
TTITLE6=Time Is Tight
TTITLE7=Memory
TTITLE8=Liverpool Days
TTITLE9=Queen Of Hearts
TTITLE10=A Whiter Shade Of Pale
EXTD=
EXTT0=
EXTT1=
EXTT2=
EXTT3=
EXTT4=
EXTT5=
EXTT6=
EXTT7=
EXTT8=
EXTT9=
EXTT10=
PLAYORDER=
